<svg xmlns="http://www.w3.org/2000/svg" xmlns:xlink="http://www.w3.org/1999/xlink" viewBox="0 0 251 231" preserveAspectRatio="xMidYMid" style="display: block; shape-rendering: auto; background: rgb(255, 255, 255);" width="251" height="231"><style type="text/css">
  .ld-text text {
    text-anchor: middle;
    dominant-baseline: middle;
    font-size: 67px;
    opacity: 0;
    user-select: none;
    pointer-events: none;
  }
</style>
<g style="transform-origin:125.5px 115.5px;transform:scale(1)" class="ld-text">
<g transform="translate(125.5,115.5)">
  <g transform="scale(0.8375) translate(0,0)"><g class="path" style="opacity: 1; animation: 1s linear -0.44s infinite normal forwards running animate-265vauvdzwt; transform-box: view-box; transform-origin: -34.24px 0px;"><path d="M25.68 0L7.84 26.64L7.84 0L3.28 0L3.28 56L7.84 56L7.84 34.48L11.60 28.40L29.68 56L35.04 56L14.56 24.16L30.88 0L25.68 0" style="fill: rgb(152, 93, 78);" transform="translate(-53.400,-28.000)"></path></g><g class="path" style="opacity: 1; animation: 1s linear -0.22s infinite normal forwards running animate-265vauvdzwt; transform-box: view-box; transform-origin: 2.48px 0px;"><path d="M41.44 0L41.44 56L70.32 56L70.32 52L46 52L46 0L41.44 0" style="fill: rgb(224, 220, 184);" transform="translate(-53.400,-28.000)"></path></g><g class="path" style="opacity: 1; animation: 1s linear 0s infinite normal forwards running animate-265vauvdzwt; transform-box: view-box; transform-origin: 39.84px 0px;"><path d="M91.52 0L91.52 0L76.40 0L76.40 56L93.12 56Q98.80 56 102.56 54.20Q106.32 52.40 108.20 48.84Q110.08 45.28 110.08 40L110.08 40L110.08 18Q110.08 12.56 107.96 8.52Q105.84 4.48 101.72 2.24Q97.60 0 91.52 0 zM91.76 52L91.76 52L80.96 52L80.96 4L92.32 4Q97.04 4 99.92 5.76Q102.80 7.52 104.16 10.44Q105.52 13.36 105.52 16.80L105.52 16.80L105.52 40.80Q105.52 43.52 104.68 45.64Q103.84 47.76 102.12 49.16Q100.40 50.56 97.84 51.28Q95.28 52 91.76 52" style="fill: rgb(172, 167, 48);" transform="translate(-53.400,-28.000)"></path></g></g><text dy="0.35em" fill="#985d4e" font-family="Advent Pro" font-size="67">KLD</text>
</g>
</g><style type="text/css">@keyframes animate-265vauvdzwt { 0.00% {animation-timing-function: cubic-bezier(0.33,0.00,0.67,0.00);transform: translate(0.00px,0.00px) rotate(0.00deg) scale(1.00, 1.00) skew(0deg, 0.00deg) ;opacity: 1.00;}48.00% {transform: translate(0.00px,0.00px) rotate(0.00deg) ;opacity: 1.00;}50.00% {animation-timing-function: cubic-bezier(0.33,0.00,0.67,0.00);transform: translate(0.00px,0.00px) rotate(0.00deg) ;opacity: 0.00;}100.00% {animation-timing-function: cubic-bezier(0.33,0.00,0.67,0.00);transform: translate(0.00px,0.00px) rotate(0.00deg) ;opacity: 0.00;} }</style><!-- [ldio] generated by https://loading.io --></svg>